<?xml version="1.0" standalone="no"?>
<!DOCTYPE svg PUBLIC "-//W3C//DTD SVG 1.1//EN" "http://www.w3.org/Graphics/SVG/1.1/DTD/svg11.dtd">
<svg t="1683517425039" class="icon" viewBox="0 0 1024 1024" version="1.1" xmlns="http://www.w3.org/2000/svg" p-id="5193" xmlns:xlink="http://www.w3.org/1999/xlink" width="200" height="200">
  <path d="M544 0h248.2C817.6 0 842 10.2 860 28.2L995.8 164c18 18 28.2 42.4 28.2 67.8V672c0 53-43 96-96 96H544c-53 0-96-43-96-96V96c0-53 43-96 96-96zM96 256h288v128H128v512h384v-64h128v96c0 53-43 96-96 96H96c-53 0-96-43-96-96V352c0-53 43-96 96-96z" p-id="5194"/>
</svg>
