<?xml version="1.0" standalone="no"?>
<!DOCTYPE svg PUBLIC "-//W3C//DTD SVG 1.1//EN" "http://www.w3.org/Graphics/SVG/1.1/DTD/svg11.dtd">
<svg t="1683517933250" class="icon" viewBox="0 0 1024 1024" version="1.1" xmlns="http://www.w3.org/2000/svg" p-id="9086" xmlns:xlink="http://www.w3.org/1999/xlink" width="200" height="200">
  <path d="M512 213.333333c166.4 0 298.666667 132.266667 298.666667 298.666667 0 102.4-51.2 192-128 243.2V810.666667c0 93.866667-76.8 170.666667-170.666667 170.666666-89.6 0-166.4-72.533333-170.666667-162.133333v-64c-76.8-55.466667-128-145.066667-128-243.2 0-166.4 132.266667-298.666667 298.666667-298.666667z m85.333333 584.533334c-25.6 8.533333-55.466667 12.8-85.333333 12.8s-59.733333-4.266667-85.333333-12.8v12.8c0 46.933333 38.4 85.333333 85.333333 85.333333s81.066667-34.133333 85.333333-81.066667v-17.066666zM512 298.666667c-119.466667 0-213.333333 93.866667-213.333333 213.333333s93.866667 213.333333 213.333333 213.333333 213.333333-93.866667 213.333333-213.333333-93.866667-213.333333-213.333333-213.333333z m426.666667 170.666666c25.6 0 42.666667 17.066667 42.666666 42.666667s-17.066667 42.666667-42.666666 42.666667h-42.666667c-25.6 0-42.666667-17.066667-42.666667-42.666667s17.066667-42.666667 42.666667-42.666667h42.666667zM128 469.333333c25.6 0 42.666667 17.066667 42.666667 42.666667s-17.066667 42.666667-42.666667 42.666667H85.333333c-25.6 0-42.666667-17.066667-42.666666-42.666667s17.066667-42.666667 42.666666-42.666667h42.666667z m716.8-290.133333c17.066667 17.066667 17.066667 42.666667 0 59.733333l-29.866667 29.866667c-17.066667 17.066667-42.666667 17.066667-59.733333 0s-17.066667-42.666667 0-59.733333l29.866667-29.866667c17.066667-17.066667 42.666667-17.066667 59.733333 0z m-605.866667 0l29.866667 29.866667c17.066667 17.066667 17.066667 42.666667 0 59.733333s-42.666667 17.066667-59.733333 0l-29.866667-29.866667c-17.066667-17.066667-17.066667-42.666667 0-59.733333 17.066667-17.066667 42.666667-17.066667 59.733333 0zM512 42.666667c25.6 0 42.666667 17.066667 42.666667 42.666666v42.666667c0 25.6-17.066667 42.666667-42.666667 42.666667s-42.666667-17.066667-42.666667-42.666667V85.333333c0-25.6 17.066667-42.666667 42.666667-42.666666z" p-id="9087"/>
</svg>
