<?xml version="1.0" standalone="no"?>
<!DOCTYPE svg PUBLIC "-//W3C//DTD SVG 1.1//EN" "http://www.w3.org/Graphics/SVG/1.1/DTD/svg11.dtd">
<svg t="1682695976864" class="icon" viewBox="0 0 1024 1024" version="1.1" xmlns="http://www.w3.org/2000/svg" p-id="7029" xmlns:xlink="http://www.w3.org/1999/xlink" width="200" height="200">
  <path d="M864 128H160c-19.2 0-32 12.8-32 32v704c0 19.2 12.8 32 32 32h704c19.2 0 32-12.8 32-32V160c0-19.2-12.8-32-32-32z m-195.2 496c12.8 12.8 12.8 32 0 44.8-12.8 12.8-32 12.8-44.8 0L512 556.8l-112 112c-12.8 12.8-32 12.8-44.8 0-12.8-12.8-12.8-32 0-44.8l112-112-112-112c-12.8-12.8-12.8-32 0-44.8s32-12.8 44.8 0l112 112 112-112c12.8-12.8 32-12.8 44.8 0 12.8 12.8 12.8 32 0 44.8L556.8 512l112 112z" p-id="7030"/>
</svg>
